# xmcd
#
# Track frame offsets:
#	150
#	13766
#	34000
#	49489
#	60390
#	75248
#	85355
#	101212
#	116815
#	137482
#	151098
#	169473
#
# Disc length: 2377 seconds
#
# Revision: 1
# Processed by: cddbd v1.5.2PL0 Copyright (c) Steve Scherf et al.
# Submitted via: audiograbber 1.83.01
#
DISCID=9709470c
DTITLE=Heaven's Harbor - Carried Away
DYEAR=1900
DGENRE=Southern Gospel
TTITLE0=When I Get Carried Away
TTITLE1=Love Was In The Room
TTITLE2=He Saw It All
TTITLE3=Moving Up To Heaven
TTITLE4=The Eastern Gate
TTITLE5=Everybody Will Be Happy Over There
TTITLE6=When He Was On The Cross
TTITLE7=Somewhere In Gloryland
TTITLE8=Knowing You'll Be There
TTITLE9=Lord Lead Me On
TTITLE10=Sweet Beulah Land
TTITLE11=I Will Serve Thee
EXTD=
EXTT0=Written by Carolyn and Phil Cross
EXTT1=Written by Mosie Lister
EXTT2=Written by Darryl Mosely
EXTT3=Written by Lee Roy Abernathy
EXTT4=Written by J.G. Martin
EXTT5=Written by E.M. Bartlett
EXTT6=Written by Ronnie Henson and Ronald Payne
EXTT7=Written by David Jenkins and Daryl Williams
EXTT8=Written by Suzanne Jennings and Michael Sykes
EXTT9=Written by Marion W. Easterling
EXTT10=Written by Squire Parsons
EXTT11=Written by William J. Gaither
PLAYORDER=
